<svg width="28" height="32" viewBox="0 0 28 32" fill="none" xmlns="http://www.w3.org/2000/svg">
<path d="M0.913502 0.722656L16.188 16.0017L0.915002 31.2807C0.643413 31.1665 0.411644 30.9746 0.248839 30.729C0.0860329 30.4835 -0.000541153 30.1953 2.54523e-06 29.9007V2.10266C0.000117519 1.80839 0.0867848 1.52065 0.249214 1.27528C0.411644 1.0299 0.642661 0.837715 0.913502 0.722656ZM17.2485 17.0622L20.7015 20.5152L4.296 30.0147L17.2485 17.0622ZM22.047 12.2652L26.2575 14.7042C26.4848 14.836 26.6735 15.0253 26.8046 15.253C26.9358 15.4807 27.0048 15.7389 27.0048 16.0017C27.0048 16.2644 26.9358 16.5226 26.8046 16.7503C26.6735 16.978 26.4848 17.1673 26.2575 17.2992L22.0455 19.7382L18.309 16.0017L22.047 12.2652ZM4.296 1.98866L20.703 11.4867L17.2485 14.9412L4.296 1.98866Z" fill="#111111"/>
</svg>
