<svg width="36" height="30" viewBox="0 0 36 30" fill="none" xmlns="http://www.w3.org/2000/svg">
<path d="M11.3213 29.623C24.9062 29.623 32.3366 18.3679 32.3366 8.60761C32.3366 8.28793 32.3366 7.96969 32.315 7.65289C33.7606 6.60732 35.0084 5.31271 36 3.82969C34.6521 4.42729 33.2221 4.81902 31.7578 4.99177C33.2997 4.0688 34.4537 2.61694 35.005 0.906486C33.5551 1.7669 31.969 2.37323 30.3149 2.69929C29.2013 1.51515 27.7284 0.731048 26.1243 0.468313C24.5201 0.205578 22.8741 0.478858 21.441 1.24587C20.0078 2.01287 18.8673 3.23085 18.1961 4.71131C17.5249 6.19177 17.3603 7.85218 17.7278 9.43561C14.7913 9.2883 11.9186 8.52515 9.29618 7.19569C6.67373 5.86623 4.36015 4.00018 2.5056 1.71865C1.56109 3.34464 1.27181 5.26949 1.69665 7.10128C2.12149 8.93307 3.22851 10.5341 4.79232 11.5783C3.61685 11.5439 2.46697 11.2268 1.44 10.6538V10.7474C1.44047 12.4527 2.03078 14.1053 3.11081 15.425C4.19084 16.7447 5.69409 17.6501 7.3656 17.9878C6.27822 18.2844 5.13731 18.3277 4.03056 18.1145C4.50272 19.582 5.42164 20.8652 6.65886 21.7849C7.89607 22.7045 9.38974 23.2146 10.931 23.2438C9.39966 24.4475 7.64597 25.3375 5.77031 25.8628C3.89465 26.3881 1.93382 26.5384 0 26.3052C3.37775 28.4727 7.30789 29.6225 11.3213 29.6172" fill="#2E2E2E"/>
</svg>
